<?xml version="1.0" encoding="UTF-8"?><svg id="_Слой_1" xmlns="http://www.w3.org/2000/svg" xmlns:xlink="http://www.w3.org/1999/xlink" viewBox="0 0 595.28 419.53"><defs><style>.cls-1{fill:none;}.cls-2{fill:#665a4d;}.cls-3{fill:url(#_Безымянный_градиент_3);}.cls-4{fill:url(#_Безымянный_градиент_7);}.cls-5{fill:url(#_Безымянный_градиент_7-2);}.cls-6{fill:url(#_Безымянный_градиент_113);}.cls-7{fill:url(#_Безымянный_градиент_312);}.cls-8{fill:url(#_Безымянный_градиент_209);}.cls-9{fill:url(#_Безымянный_градиент_274);}.cls-10{clip-path:url(#clippath-11);}.cls-11{clip-path:url(#clippath-10);}.cls-12{clip-path:url(#clippath-1);}.cls-13{clip-path:url(#clippath-3);}.cls-14{clip-path:url(#clippath-4);}.cls-15{clip-path:url(#clippath-2);}.cls-16{clip-path:url(#clippath-7);}.cls-17{clip-path:url(#clippath-6);}.cls-18{clip-path:url(#clippath-9);}.cls-19{clip-path:url(#clippath-8);}.cls-20{clip-path:url(#clippath-5);}.cls-21{fill:#292830;}.cls-22{fill:#020202;}.cls-23{fill:#b7ab9e;}.cls-24{fill:#fff;}.cls-25{fill:url(#_Безымянный_градиент_17-2);}.cls-26{fill:url(#_Безымянный_градиент_23-2);}.cls-27{fill:url(#_Безымянный_градиент_42-2);}.cls-28{fill:url(#_Безымянный_градиент_38-2);}.cls-29{fill:url(#_Безымянный_градиент_113-2);}.cls-30{fill:url(#_Безымянный_градиент_113-5);}.cls-31{fill:url(#_Безымянный_градиент_113-7);}.cls-32{fill:url(#_Безымянный_градиент_113-4);}.cls-33{fill:url(#_Безымянный_градиент_113-6);}.cls-34{fill:url(#_Безымянный_градиент_113-3);}.cls-35{fill:url(#_Безымянный_градиент_42);}.cls-36{fill:url(#_Безымянный_градиент_38);}.cls-37{fill:url(#_Безымянный_градиент_27);}.cls-38{fill:url(#_Безымянный_градиент_25);}.cls-39{fill:url(#_Безымянный_градиент_23);}.cls-40{fill:url(#_Безымянный_градиент_22);}.cls-41{fill:url(#_Безымянный_градиент_11);}.cls-42{fill:url(#_Безымянный_градиент_17);}.cls-43{fill:#ffe20d;}.cls-44{clip-path:url(#clippath);}</style><clipPath id="clippath"><path class="cls-1" d="M152.46,188.15c0-3.32,2.88-13.98-.98-13.98-1.82,0-4.59,1.37-6.74,0-3.66-2.34,7.72,24.33,7.72,13.98Z"/></clipPath><radialGradient id="_Безымянный_градиент_42" cx="8287.75" cy="491.4" fx="8287.75" fy="491.4" r="9.33" gradientTransform="translate(535.23 1843.97) rotate(-90) scale(.2 -.78)" gradientUnits="userSpaceOnUse"><stop offset="0" stop-color="#665a4d" stop-opacity="0"/><stop offset=".8" stop-color="#000" stop-opacity=".5"/><stop offset="1" stop-color="#665a4d" stop-opacity="0"/></radialGradient><radialGradient id="_Безымянный_градиент_38" cx="2232.98" cy="-3471.12" fx="2232.98" fy="-3471.12" r="22.01" gradientTransform="translate(1073.89 893.08) rotate(-180) scale(.42 -.21)" gradientUnits="userSpaceOnUse"><stop offset="0" stop-color="#000"/><stop offset="1" stop-color="#665a4d" stop-opacity="0"/></radialGradient><clipPath id="clippath-1"><path class="cls-1" d="M108.76,188.15c0-3.32-2.88-13.98.98-13.98,1.82,0,4.59,1.37,6.74,0,3.66-2.34-7.72,24.33-7.72,13.98Z"/></clipPath><radialGradient id="_Безымянный_градиент_42-2" cx="4357.82" cy="383.56" fx="4357.82" fy="383.56" r="9.33" gradientTransform="translate(-763.75 -118.03) scale(.2 .78)" xlink:href="#_Безымянный_градиент_42"/><radialGradient id="_Безымянный_градиент_38-2" cx="2298.3" fx="2298.3" r="22.01" xlink:href="#_Безымянный_градиент_38"/><clipPath id="clippath-2"><path class="cls-1" d="M150.19,216.06c0,9.53-8.76,32.99-19.56,32.99s-19.56-23.46-19.56-32.99,8.76-15.29,19.56-15.29,19.56,5.77,19.56,15.29Z"/></clipPath><radialGradient id="_Безымянный_градиент_17" cx="-2245.51" cy="1459.6" fx="-2245.51" fy="1459.6" r="22.01" gradientTransform="translate(-1987.61 1098.25) rotate(-180) scale(.93 .59)" gradientUnits="userSpaceOnUse"><stop offset="0" stop-color="#000"/><stop offset="1" stop-color="#b7ab9e" stop-opacity="0"/></radialGradient><radialGradient id="_Безымянный_градиент_11" cx="-2172.85" cy="1752.33" fx="-2172.85" fy="1752.33" r="22.01" gradientTransform="translate(-1885.9 1270.51) rotate(-180) scale(.93 .59)" gradientUnits="userSpaceOnUse"><stop offset="0" stop-color="#000" stop-opacity=".7"/><stop offset="1" stop-color="#b7ab9e" stop-opacity="0"/></radialGradient><radialGradient id="_Безымянный_градиент_113" cx="-1738.43" cy="886.83" fx="-1738.43" fy="886.83" r="22.01" gradientTransform="translate(812.03 2075.48) rotate(90) scale(1.07 .77)" gradientUnits="userSpaceOnUse"><stop offset="0" stop-color="#fff"/><stop offset="1" stop-color="#fff" stop-opacity="0"/></radialGradient><radialGradient id="_Безымянный_градиент_17-2" cx="-1389.63" cy="2950.11" fx="-1389.63" fy="2950.11" r="22.01" gradientTransform="translate(-1168.81 1575.88) rotate(-180) scale(.93 .47)" xlink:href="#_Безымянный_градиент_17"/><clipPath id="clippath-3"><path class="cls-1" d="M145.47,218.19c0,7.23-6.64,19.03-14.84,19.03s-14.84-11.8-14.84-19.03,6.64-11.6,14.84-11.6,14.84,4.37,14.84,11.6Z"/></clipPath><radialGradient id="_Безымянный_градиент_113-2" cx="284.05" cy="220.95" fx="284.05" fy="220.95" r="25.34" gradientTransform="translate(-75.09 89.7) scale(.72 .59)" xlink:href="#_Безымянный_градиент_113"/><clipPath id="clippath-4"><path class="cls-1" d="M120.08,224.9c1.41,4.18-1.44,14.56-3.85,14.56-3.84,0-9.83-15.65-4.81-28.33.08-.21.29-.35.52-.35h.14c-1.62,8.79,6.53,9.78,8,14.12Z"/></clipPath><radialGradient id="_Безымянный_градиент_113-3" cx="1093.97" cy="670.68" fx="1093.97" fy="670.68" r="13.46" gradientTransform="translate(-399.45 -284.78) scale(.47 .74)" xlink:href="#_Безымянный_градиент_113"/><radialGradient id="_Безымянный_градиент_209" cx="594.32" cy="977.68" fx="594.32" fy="977.68" r="13.46" gradientTransform="translate(-254.58 -774.06) scale(.61 1.02)" gradientUnits="userSpaceOnUse"><stop offset="0" stop-color="#fff" stop-opacity=".5"/><stop offset="1" stop-color="#fff" stop-opacity="0"/></radialGradient><clipPath id="clippath-5"><path class="cls-1" d="M141.25,224.9c-1.41,4.18,1.44,14.56,3.85,14.56,3.84,0,9.83-15.65,4.81-28.33-.08-.21-.29-.35-.52-.35h-.14c1.62,8.79-6.53,9.78-8,14.12Z"/></clipPath><radialGradient id="_Безымянный_градиент_113-4" cx="-1415.29" cy="451.54" fx="-1415.29" fy="451.54" r="13.46" gradientTransform="translate(481.1 -452.79) rotate(-90) scale(.47 -.74)" xlink:href="#_Безымянный_градиент_113"/><radialGradient id="_Безымянный_градиент_3" cx="-1336.08" cy="818.51" fx="-1336.08" fy="818.51" r="13.46" gradientTransform="translate(990.42 -590.93) rotate(-90) scale(.61 -1.02)" gradientUnits="userSpaceOnUse"><stop offset="0" stop-color="#000" stop-opacity=".3"/><stop offset="1" stop-color="#b7ab9e" stop-opacity="0"/></radialGradient><radialGradient id="_Безымянный_градиент_274" cx="142.37" cy="217.89" fx="142.37" fy="217.89" r="4.61" gradientTransform="translate(-2.44 13.21) scale(.93)" gradientUnits="userSpaceOnUse"><stop offset=".2" stop-color="#ffe20d"/><stop offset=".45" stop-color="#ffeb5b" stop-opacity=".68"/><stop offset="1" stop-color="#fff" stop-opacity="0"/></radialGradient><clipPath id="clippath-6"><path class="cls-1" d="M152.5,188.15c0,10.34-8.62,16.69-21.87,16.69s-21.87-6.35-21.87-16.69,8.62-17.67,21.87-17.67,21.87,7.33,21.87,17.67Z"/></clipPath><linearGradient id="_Безымянный_градиент_22" x1="139.88" y1="205" x2="134.52" y2="195.48" gradientTransform="translate(71.11 -33.18) rotate(19.05)" gradientUnits="userSpaceOnUse"><stop offset="0" stop-color="#000" stop-opacity=".3"/><stop offset="1" stop-color="#b7ab9e" stop-opacity="0"/></linearGradient><radialGradient id="_Безымянный_градиент_113-5" cx="46.75" cy="438.67" fx="46.75" fy="438.67" r="22.01" gradientTransform="translate(76.27 -108.85) scale(1.16 .68)" xlink:href="#_Безымянный_градиент_113"/><radialGradient id="_Безымянный_градиент_23" cx="697.04" cy="-760.52" fx="697.04" fy="-760.52" r="24.02" gradientTransform="translate(-171.17 503.96) scale(.45 .42)" gradientUnits="userSpaceOnUse"><stop offset=".02" stop-color="#fff" stop-opacity="0"/><stop offset=".68" stop-color="#fff"/><stop offset="1" stop-color="#fff" stop-opacity="0"/></radialGradient><radialGradient id="_Безымянный_градиент_23-2" cx="656.15" fx="656.15" r="24.02" xlink:href="#_Безымянный_градиент_23"/><clipPath id="clippath-7"><path class="cls-1" d="M147.63,188.15c0,7.38-7.61,11.42-17,11.42s-17-4.03-17-11.42c0-5,4.81-8.15,8.66-8.15,3.19,0,8.34,2.6,8.34,2.6,0,0,5.15-2.6,8.34-2.6,3.85,0,8.66,3.15,8.66,8.15Z"/></clipPath><radialGradient id="_Безымянный_градиент_25" cx="7340.87" cy="-3585.05" fx="7340.87" fy="-3585.05" r="16.92" gradientTransform="translate(610.68 1658.92) rotate(-90.28) scale(.2 .13) skewX(.05)" gradientUnits="userSpaceOnUse"><stop offset=".42" stop-color="#000" stop-opacity=".5"/><stop offset="1" stop-color="#665a4d" stop-opacity="0"/></radialGradient><clipPath id="clippath-8"><path class="cls-1" d="M132.19,193.81c0,.99-.84,2.58-1.56,2.58s-1.56-1.59-1.56-2.58.84-1.19,1.56-1.19,1.56.19,1.56,1.19Z"/></clipPath><radialGradient id="_Безымянный_градиент_27" cx="37.68" cy="4547.67" fx="37.68" fy="4547.67" r="6.41" gradientTransform="translate(2159.08 152.78) rotate(90) scale(.99 .45)" gradientUnits="userSpaceOnUse"><stop offset=".08" stop-color="#000"/><stop offset="1" stop-color="#665a4d" stop-opacity="0"/></radialGradient><radialGradient id="_Безымянный_градиент_312" cx="1113.97" cy="8987.7" fx="1113.97" fy="8987.7" r="6.41" gradientTransform="translate(1233.35 2218.05) rotate(-180) scale(.99 .23)" gradientUnits="userSpaceOnUse"><stop offset=".08" stop-color="#fff"/><stop offset=".2" stop-color="#ebeae8" stop-opacity=".86"/><stop offset=".6" stop-color="#ada8a1" stop-opacity=".4"/><stop offset=".87" stop-color="#867e73" stop-opacity=".11"/><stop offset="1" stop-color="#776e62" stop-opacity="0"/></radialGradient><clipPath id="clippath-9"><path class="cls-1" d="M147.63,188.15c0,7.38-7.61,11.42-17,11.42s-17-4.03-17-11.42c0-5,4.81-8.15,8.66-8.15,3.19,0,8.34,2.6,8.34,2.6,0,0,5.15-2.6,8.34-2.6,3.85,0,8.66,3.15,8.66,8.15Z"/></clipPath><radialGradient id="_Безымянный_градиент_7" cx="1343.95" cy="2423.44" fx="1343.95" fy="2423.44" r="14.03" gradientTransform="translate(-965.14 820.02) rotate(-90.42) scale(.47) skewX(-.18)" gradientUnits="userSpaceOnUse"><stop offset="0" stop-color="#fbed21" stop-opacity="0"/><stop offset=".64" stop-color="#ffe20d"/><stop offset="1" stop-color="#fbed21" stop-opacity="0"/></radialGradient><radialGradient id="_Безымянный_градиент_7-2" cy="2396.51" fy="2396.51" r="14.03" gradientTransform="translate(-969.51 819.97) rotate(-90.42) scale(.47) skewX(-.18)" xlink:href="#_Безымянный_градиент_7"/><clipPath id="clippath-10"><circle class="cls-1" cx="122.29" cy="188.63" r="4.34"/></clipPath><radialGradient id="_Безымянный_градиент_113-6" cx="-10.45" cy="183.08" fx="-10.45" fy="183.08" r="7.02" gradientTransform="translate(129.99 76.59) scale(.74 .59)" xlink:href="#_Безымянный_градиент_113"/><clipPath id="clippath-11"><circle class="cls-1" cx="138.97" cy="188.63" r="4.34"/></clipPath><radialGradient id="_Безымянный_градиент_113-7" cx="12.19" cy="183.08" fx="12.19" fy="183.08" r="7.02" gradientTransform="translate(129.99 76.59) scale(.74 .59)" xlink:href="#_Безымянный_градиент_113"/></defs><path d="M163.02,224.98h7.01c.21,8.14,6.37,11.47,13.87,11.47,6.8,0,11.89-3.11,11.89-8.92,0-4.46-3.19-7.15-8.99-8.42l-8.21-1.84c-8.99-1.98-13.52-5.73-13.52-13.02,0-8.49,7.29-14.09,17.91-14.09s16.99,5.66,17.84,14.65h-6.87c-.64-6.23-4.96-9.41-11.25-9.41s-10.97,3.4-10.97,8.35c0,4.32,3.61,6.51,8.78,7.72l8.28,1.98c8.64,2.05,13.94,5.52,13.94,14.02,0,9.06-7.5,14.51-19.54,14.51s-20.03-5.59-20.17-16.99Z"/><path d="M207.68,216.13c0-7.36,3.19-13.59,10.62-16.85-2.05,4.25-3.04,9.98-3.04,16.85s1.06,12.6,3.11,16.85c-7.5-3.26-10.69-9.56-10.69-16.85ZM248.95,216.13c0-6.87-.99-12.6-3.04-16.85-2.76-5.95-7.43-9.13-13.8-9.13s-11.04,3.19-13.8,9.13c3.54-1.56,8.14-2.48,13.8-2.48s10.26.92,13.8,2.48c7.43,3.26,10.62,9.49,10.62,16.85s-3.19,13.66-10.69,16.92c-3.61,1.56-8.14,2.41-13.73,2.41s-10.19-.92-13.73-2.48c2.76,5.88,7.43,8.99,13.73,8.99s10.9-3.11,13.73-8.92c2.05-4.25,3.11-9.98,3.11-16.92Z"/><path d="M276.06,240.84l-17.77-49.55h7.5l13.8,42.54,13.8-42.54h7.5l-17.77,49.55h-7.08Z"/><path d="M335.74,240.84l-5.38-14.09h-20.46l-5.31,14.09h-7.22l19.54-49.55h6.51l19.54,49.55h-7.22ZM328.37,221.44l-8.21-23.85-8.14,23.85h16.35Z"/><path class="cls-2" d="M152.46,188.15c0-3.32,2.88-13.98-.98-13.98-1.82,0-4.59,1.37-6.74,0-3.66-2.34,7.72,24.33,7.72,13.98Z"/><g class="cls-44"><ellipse class="cls-35" cx="151.01" cy="181.85" rx="7.69" ry="2.36" transform="translate(-50.15 305.98) rotate(-81.97)"/><ellipse class="cls-36" cx="144.05" cy="173.79" rx="9.13" ry="4.58"/></g><path class="cls-2" d="M108.76,188.15c0-3.32-2.88-13.98.98-13.98,1.82,0,4.59,1.37,6.74,0,3.66-2.34-7.72,24.33-7.72,13.98Z"/><g class="cls-12"><ellipse class="cls-27" cx="110.21" cy="181.85" rx="2.36" ry="7.69" transform="translate(-24.32 17.17) rotate(-8.03)"/><ellipse class="cls-28" cx="116.86" cy="173.79" rx="9.13" ry="4.58"/></g><path class="cls-23" d="M150.19,216.06c0,9.53-8.76,32.99-19.56,32.99s-19.56-23.46-19.56-32.99,8.76-15.29,19.56-15.29,19.56,5.77,19.56,15.29Z"/><g class="cls-15"><ellipse class="cls-42" cx="111.15" cy="239.46" rx="20.5" ry="13.02" transform="translate(-151.64 264.67) rotate(-70.58)"/><ellipse class="cls-41" cx="144.95" cy="239.46" rx="20.5" ry="13.02" transform="translate(-134.96 237.28) rotate(-58.37)"/><ellipse class="cls-6" cx="130.63" cy="218.94" rx="17" ry="23.42"/><ellipse class="cls-25" cx="130" cy="201.91" rx="20.5" ry="10.3"/></g><g class="cls-13"><ellipse class="cls-29" cx="130.63" cy="219.61" rx="18.29" ry="14.99"/></g><path class="cls-23" d="M120.08,224.9c1.41,4.18-1.44,14.56-3.85,14.56-3.84,0-9.83-15.65-4.81-28.33.08-.21.29-.35.52-.35h.14c-1.62,8.79,6.53,9.78,8,14.12Z"/><g class="cls-14"><ellipse class="cls-34" cx="116.23" cy="214.34" rx="6.32" ry="10.07" transform="translate(-43.17 29.83) rotate(-12.35)"/><ellipse class="cls-8" cx="109.58" cy="227.73" rx="8.22" ry="13.87" transform="translate(-46.19 28.72) rotate(-12.35)"/></g><path class="cls-23" d="M141.25,224.9c-1.41,4.18,1.44,14.56,3.85,14.56,3.84,0,9.83-15.65,4.81-28.33-.08-.21-.29-.35-.52-.35h-.14c1.62,8.79-6.53,9.78-8,14.12Z"/><g class="cls-20"><ellipse class="cls-32" cx="145.1" cy="214.34" rx="10.07" ry="6.32" transform="translate(-95.33 310.22) rotate(-77.65)"/><ellipse class="cls-3" cx="151.74" cy="227.73" rx="13.87" ry="8.22" transform="translate(-103.18 327.23) rotate(-77.65)"/></g><circle class="cls-9" cx="130.63" cy="216.85" r="4.31"/><circle class="cls-43" cx="130.63" cy="216.85" r="2.05"/><path class="cls-23" d="M152.5,188.15c0,10.34-8.62,16.69-21.87,16.69s-21.87-6.35-21.87-16.69,8.62-17.67,21.87-17.67,21.87,7.33,21.87,17.67Z"/><g class="cls-17"><ellipse class="cls-40" cx="134.39" cy="195.26" rx="23.06" ry="11.76" transform="translate(-56.38 54.57) rotate(-19.05)"/><ellipse class="cls-30" cx="130.63" cy="187.47" rx="25.5" ry="14.95"/><ellipse class="cls-39" cx="139.66" cy="187" rx="10.67" ry="10.06"/><ellipse class="cls-26" cx="121.43" cy="187" rx="10.67" ry="10.06"/></g><path class="cls-2" d="M147.63,188.15c0,7.38-7.61,11.42-17,11.42s-17-4.03-17-11.42c0-5,4.81-8.15,8.66-8.15,3.19,0,8.34,2.6,8.34,2.6,0,0,5.15-2.6,8.34-2.6,3.85,0,8.66,3.15,8.66,8.15Z"/><g class="cls-16"><ellipse class="cls-38" cx="130.63" cy="194.9" rx="2.4" ry="3.55"/></g><path class="cls-2" d="M132.19,193.81c0,.99-.84,2.58-1.56,2.58s-1.56-1.59-1.56-2.58.84-1.19,1.56-1.19,1.56.19,1.56,1.19Z"/><g class="cls-19"><ellipse class="cls-37" cx="130.63" cy="190.03" rx="2.87" ry="6.32"/><ellipse class="cls-7" cx="132.15" cy="195.73" rx="6.32" ry="1.45" transform="translate(-103.43 212.31) rotate(-60)"/></g><g class="cls-18"><ellipse class="cls-4" cx="138.97" cy="188.63" rx="6.91" ry="6.88"/><ellipse class="cls-5" cx="122.29" cy="188.63" rx="6.91" ry="6.88"/></g><circle class="cls-43" cx="122.29" cy="188.63" r="4.9"/><circle class="cls-22" cx="122.29" cy="188.63" r="3.07"/><path class="cls-21" d="M122.29,185.55c1.7,0,3.07,1.38,3.07,3.07s-1.38,3.07-3.07,3.07v-6.14Z"/><ellipse class="cls-24" cx="123.87" cy="187.41" rx=".53" ry=".61"/><g class="cls-11"><ellipse class="cls-33" cx="122.29" cy="184.29" rx="5.15" ry="4.15"/></g><circle class="cls-43" cx="138.97" cy="188.63" r="4.9"/><circle class="cls-22" cx="138.97" cy="188.63" r="3.07"/><path class="cls-21" d="M138.97,185.55c1.7,0,3.07,1.38,3.07,3.07s-1.38,3.07-3.07,3.07v-6.14Z"/><ellipse class="cls-24" cx="140.55" cy="187.41" rx=".53" ry=".61"/><g class="cls-10"><ellipse class="cls-31" cx="138.97" cy="184.29" rx="5.15" ry="4.15"/></g><path d="M402.49,223h-53.8v-5.28h53.8v5.28Z"/><path d="M445.51,240.74h-5.92v-30.56h-18.31v30.56h-5.99v-30.56h-7.53v-5.35h7.53v-4.86c0-7.53,2.39-12.6,11.62-12.6,1.48,0,2.75.14,4.79.42v5.35c-.63-.14-2.18-.42-3.87-.42-5.49,0-6.55,1.62-6.55,8.52v3.59h24.22v35.91ZM442.49,197.08c-2.25,0-3.87-1.62-3.87-3.87s1.62-3.8,3.87-3.8,3.94,1.55,3.94,3.8-1.69,3.87-3.94,3.87Z"/><path d="M487.55,240.74h-7.32l-10.77-14.08-10.49,14.08h-7.39l14.58-18.8-13.17-17.11h7.46l9.65,12.82,9.37-12.82h6.83l-12.96,17.11,14.23,18.8Z"/></svg>