<?xml version="1.0" encoding="utf-8"?>
<!-- Generator: Adobe Illustrator 28.0.0, SVG Export Plug-In . SVG Version: 6.00 Build 0)  -->
<svg version="1.1" id="Слой_1" xmlns="http://www.w3.org/2000/svg" xmlns:xlink="http://www.w3.org/1999/xlink" x="0px" y="0px"
	 viewBox="0 0 414 172.3" style="enable-background:new 0 0 414 172.3;" xml:space="preserve">
<style type="text/css">
	.st0{fill:#010202;}
</style>
<g>
	<path class="st0" d="M16.6,54.3h53.1c-1.9-22-15.6-39.4-39.1-39.4c-9.1,0-17.1,2.5-24.3,5.8L2.8,9.3c8.1-3.6,17.9-6.6,28.8-6.6
		c35.8,0,54.1,25.9,54.1,59c0,37.4-24.7,58.7-55,58.7c-11.3,0-21.6-2.2-29.8-5.9l3.2-11.7c6.6,3,16.1,5.2,24.5,5.2
		c25.2,0,40.2-18.3,41.3-41.9H16.6V54.3z"/>
	<path class="st0" d="M160.4,0v10.1c24,1,48,15.6,48,51.4s-24,49.6-48.2,50.9v10.6H146v-10.6c-23.8-1.5-48-14.2-48-50.2
		c0-37.4,26.4-50.7,48.4-52.1V0L160.4,0L160.4,0z M146.2,20.8c-14.9,0.8-33,11.2-33,40.8c0,27.2,16.2,38.7,33,40.4V20.8z M160.2,102
		c16.4-1.4,33-12.3,33-40.6c0-29.2-16.6-39.7-33-40.6V102z"/>
	<path class="st0" d="M324.7,60.4c0,39.2-23.8,60-52.9,60c-30.1,0-51.2-23.3-51.2-57.8c0-36.2,22.5-59.9,52.9-59.9
		C304.6,2.7,324.7,26.5,324.7,60.4z M236.3,62.2c0,24.3,13.2,46.2,36.4,46.2c23.3,0,36.5-21.5,36.5-47.4c0-22.7-11.8-46.3-36.4-46.3
		C248.5,14.7,236.3,37.2,236.3,62.2z"/>
	<path class="st0" d="M343.8,5.9c7.1-1.2,16.4-2.2,28.2-2.2c14.5,0,25.2,3.4,32,9.5c6.3,5.4,10,13.7,10,23.8c0,10.3-3,18.4-8.8,24.4
		c-7.8,8.3-20.5,12.5-34.8,12.5c-4.4,0-8.5-0.2-11.8-1v45.7h-14.7L343.8,5.9L343.8,5.9z M358.5,60.9c3.2,0.9,7.3,1.2,12.2,1.2
		c17.8,0,28.6-8.6,28.6-24.4c0-15.1-10.6-22.3-26.9-22.3c-6.4,0-11.3,0.5-13.9,1.2L358.5,60.9L358.5,60.9z"/>
	<path class="st0" d="M3.8,146L8,157.4c0.4,1.3,0.9,2.8,1.2,3.9h0.1c0.4-1.1,0.8-2.6,1.2-4l3.8-11.3H18l-5.2,13.7
		c-2.5,6.6-4.2,10-6.6,12c-1.7,1.5-3.4,2.1-4.3,2.3l-0.9-2.9c0.9-0.3,2-0.8,3.1-1.7c0.9-0.8,2.1-2.1,2.9-3.9
		c0.2-0.4,0.3-0.6,0.3-0.8c0-0.2-0.1-0.5-0.2-0.9L0,146H3.8z"/>
	<path class="st0" d="M37,146v19.2h-3.5v-16.4h-8.9v16.4h-3.4V146H37z"/>
	<path class="st0" d="M42.7,152.3c0-2.5-0.1-4.4-0.2-6.3h3.1l0.2,3.3h0.1c1.4-2.3,3.7-3.7,6.8-3.7c4.6,0,8.1,3.9,8.1,9.8
		c0,6.9-4.2,10.3-8.7,10.3c-2.5,0-4.8-1.1-5.9-3h-0.1v10.4h-3.4L42.7,152.3L42.7,152.3z M46.1,157.4c0,0.5,0.1,1,0.2,1.4
		c0.6,2.4,2.7,4.1,5.2,4.1c3.7,0,5.8-3,5.8-7.4c0-3.9-2-7.1-5.7-7.1c-2.4,0-4.6,1.7-5.3,4.3c-0.1,0.4-0.2,1-0.2,1.4L46.1,157.4
		L46.1,157.4z"/>
	<path class="st0" d="M75.9,165.2l-0.3-2.4h-0.1c-1.1,1.5-3.1,2.9-5.9,2.9c-3.9,0-5.9-2.7-5.9-5.5c0-4.6,4.1-7.2,11.6-7.1v-0.4
		c0-1.6-0.4-4.5-4.4-4.5c-1.8,0-3.6,0.6-5,1.4l-0.8-2.3c1.6-1,3.9-1.7,6.3-1.7c5.9,0,7.3,4,7.3,7.9v7.2c0,1.7,0.1,3.3,0.3,4.6
		L75.9,165.2L75.9,165.2z M75.4,155.4c-3.8-0.1-8.1,0.6-8.1,4.3c0,2.3,1.5,3.3,3.3,3.3c2.5,0,4.1-1.6,4.6-3.2
		c0.1-0.4,0.2-0.8,0.2-1.1L75.4,155.4L75.4,155.4z"/>
	<path class="st0" d="M84.3,146.3c1.4-0.2,3.9-0.4,6.1-0.4c3.2,0,8.5,0.5,8.5,4.8c0,2.4-1.8,3.9-4,4.3v0.1c2.8,0.4,4.9,2,4.9,4.8
		c0,5-6.4,5.7-10.1,5.7c-2.1,0-4.4-0.2-5.4-0.2L84.3,146.3L84.3,146.3z M87.6,162.9c1,0.1,1.7,0.2,2.8,0.2c2.3,0,5.8-0.6,5.8-3.3
		s-2.8-3.4-6.1-3.4h-2.5L87.6,162.9L87.6,162.9z M87.6,154.1h2.6c2.6,0,5.2-0.8,5.2-3c0-1.9-1.7-2.8-5.2-2.8c-1.1,0-1.9,0.1-2.7,0.2
		V154.1z"/>
	<path class="st0" d="M118.9,146v19.2h-3.4v-16.5h-6.6v5c0,5.4-0.5,9-3,10.6c-0.9,0.8-2,1.2-3.8,1.2l-0.4-2.7
		c0.7-0.1,1.4-0.4,1.9-0.8c1.8-1.3,2-4,2-8.3V146L118.9,146L118.9,146z"/>
	<path class="st0" d="M138.8,165.2h-3.4v-8.1h-2.6c-1.5,0-2.5,0.4-3.2,1.1c-1.4,1.1-1.9,3.5-2.7,5.4c-0.2,0.6-0.5,1.1-0.8,1.6h-3.7
		c0.4-0.6,0.8-1.4,1.2-2.2c0.8-1.9,1.3-4.4,3-5.8c0.6-0.5,1.3-1,2.2-1.1V156c-2.5-0.3-5.1-1.8-5.1-4.8c0-2,1.1-3.3,2.5-4.2
		c1.6-0.9,3.9-1.3,6.4-1.3c2.3,0,4.5,0.2,6.2,0.4L138.8,165.2L138.8,165.2z M135.3,148.3c-0.9-0.1-1.7-0.2-2.9-0.2
		c-2.4,0-5.2,0.7-5.2,3.3c0,2.5,3.1,3.3,5.1,3.3c1.4,0,2.2,0,3,0V148.3z"/>
	<path class="st0" d="M147.8,146v8.1h3.3c0.6-5.1,3.9-8.5,8.5-8.5c5,0,8.4,4,8.4,9.9c0,6.2-3.8,10.2-8.6,10.2c-4.6,0-8-3.4-8.4-8.9
		h-3.2v8.5h-3.4V146L147.8,146L147.8,146z M164.6,155.5c0-3.6-1.6-7.3-5-7.3c-3.4,0-5.2,3.6-5.2,7.5c0,3.7,1.7,7.3,5.1,7.3
		C163,163.1,164.6,159.2,164.6,155.5z"/>
	<path class="st0" d="M175.8,146v16.5h6.7V146h3.4v16.5h6.7V146h3.5v16.6l2,0l-0.2,8.7h-2.7l-0.2-6.1h-22.6V146L175.8,146L175.8,146
		z"/>
	<path class="st0" d="M212.8,165.2l-0.3-2.4h-0.1c-1.1,1.5-3.1,2.9-5.9,2.9c-3.9,0-5.9-2.7-5.9-5.5c0-4.6,4.1-7.2,11.5-7.1v-0.4
		c0-1.6-0.4-4.5-4.4-4.5c-1.8,0-3.6,0.6-5,1.4l-0.8-2.3c1.6-1,3.9-1.7,6.3-1.7c5.9,0,7.3,4,7.3,7.9v7.2c0,1.7,0.1,3.3,0.3,4.6
		L212.8,165.2L212.8,165.2z M212.3,155.4c-3.8-0.1-8.1,0.6-8.1,4.3c0,2.3,1.5,3.3,3.3,3.3c2.5,0,4.1-1.6,4.6-3.2
		c0.1-0.4,0.2-0.8,0.2-1.1L212.3,155.4L212.3,155.4z"/>
	<path class="st0" d="M235.6,165.2h-3.5v-8.1h-2.6c-1.5,0-2.5,0.4-3.2,1.1c-1.4,1.1-2,3.5-2.7,5.4c-0.2,0.6-0.5,1.1-0.8,1.6h-3.7
		c0.4-0.6,0.8-1.4,1.2-2.2c0.8-1.9,1.3-4.4,3-5.8c0.6-0.5,1.3-1,2.2-1.1V156c-2.5-0.3-5.1-1.8-5.1-4.8c0-2,1.1-3.3,2.5-4.2
		c1.6-0.9,3.9-1.3,6.4-1.3c2.3,0,4.5,0.2,6.2,0.4L235.6,165.2L235.6,165.2z M232.1,148.3c-0.9-0.1-1.7-0.2-2.9-0.2
		c-2.4,0-5.2,0.7-5.2,3.3c0,2.5,3.1,3.3,5.1,3.3c1.4,0,2.2,0,3,0V148.3z"/>
	<path class="st0" d="M253.1,146v8.3h0.8l7.2-8.3h4.2l-8.4,8.7c3.1,0.3,5,2.4,6.5,5.8c0.5,1.3,1.2,3.1,2.1,4.7h-3.6
		c-0.5-0.8-1.2-2.3-1.8-3.9c-1.3-3.1-3.1-4.5-6.4-4.5h-0.7v8.5h-3.5V146L253.1,146L253.1,146z"/>
	<path class="st0" d="M285.8,155.5c0,7.1-4.9,10.2-9.6,10.2c-5.2,0-9.2-3.8-9.2-9.9c0-6.4,4.2-10.2,9.5-10.2
		C282.1,145.6,285.8,149.6,285.8,155.5z M270.6,155.7c0,4.2,2.4,7.4,5.8,7.4c3.3,0,5.8-3.1,5.8-7.5c0-3.2-1.6-7.4-5.8-7.4
		C272.4,148.2,270.6,152,270.6,155.7z"/>
	<path class="st0" d="M290.4,146h4.3l3.5,9.7c0.5,1.4,1.3,3.8,1.8,5.3h0.1c0.4-1.4,1.5-4.5,2.3-6.6l3.1-8.4h4.3l1.4,19.2h-3.3
		l-0.4-9.2c-0.1-2.1-0.3-4.5-0.4-6.9h-0.1c-0.5,1.8-1,3.3-2.1,6.2l-3.7,9.7h-2.5l-3.4-9.5c-0.6-1.8-1.4-4.6-1.9-6.4H293
		c-0.1,2.3-0.2,4.8-0.3,6.9l-0.5,9.1H289L290.4,146z"/>
	<path class="st0" d="M331.4,146v19.2h-3.5v-16.4H319v16.4h-3.5V146H331.4z"/>
	<path class="st0" d="M347.7,165.2l-0.3-2.4h-0.1c-1.1,1.5-3.1,2.9-5.9,2.9c-3.9,0-5.9-2.7-5.9-5.5c0-4.6,4.1-7.2,11.5-7.1v-0.4
		c0-1.6-0.4-4.5-4.4-4.5c-1.8,0-3.6,0.6-5,1.4l-0.8-2.3c1.6-1,3.9-1.7,6.3-1.7c5.9,0,7.3,4,7.3,7.9v7.2c0,1.7,0.1,3.3,0.3,4.6
		L347.7,165.2L347.7,165.2z M347.2,155.4c-3.8-0.1-8.1,0.6-8.1,4.3c0,2.3,1.5,3.3,3.3,3.3c2.5,0,4.1-1.6,4.6-3.2
		c0.1-0.4,0.2-0.8,0.2-1.1L347.2,155.4L347.2,155.4z"/>
	<path class="st0" d="M359.6,146v7.7h9.1V146h3.5v19.2h-3.5v-8.7h-9.1v8.7h-3.5V146H359.6z"/>
	<path class="st0" d="M381.1,146v8.1c0,3.1,0,5-0.2,7.7l0.1,0c1.1-2.3,1.8-3.7,3.1-5.9l6-9.9h4.1v19.2h-3.3v-8.1
		c0-3.1,0.1-4.8,0.2-7.9H391c-1.2,2.5-2.1,4-3.2,6c-1.8,3-3.9,6.7-6,10h-4V146L381.1,146L381.1,146z"/>
	<path class="st0" d="M414,165.2h-3.5v-8.1H408c-1.5,0-2.5,0.4-3.2,1.1c-1.4,1.1-2,3.5-2.7,5.4c-0.2,0.6-0.5,1.1-0.8,1.6h-3.7
		c0.4-0.6,0.8-1.4,1.2-2.2c0.8-1.9,1.3-4.4,3-5.8c0.6-0.5,1.3-1,2.2-1.1V156c-2.5-0.3-5.1-1.8-5.1-4.8c0-2,1.1-3.3,2.5-4.2
		c1.6-0.9,3.9-1.3,6.4-1.3c2.3,0,4.5,0.2,6.2,0.4L414,165.2L414,165.2z M410.6,148.3c-0.9-0.1-1.7-0.2-2.9-0.2
		c-2.4,0-5.2,0.7-5.2,3.3c0,2.5,3.1,3.3,5.1,3.3c1.4,0,2.2,0,3,0V148.3z"/>
</g>
</svg>
