<?xml version="1.0" encoding="utf-8"?>
<!-- Generator: Adobe Illustrator 28.0.0, SVG Export Plug-In . SVG Version: 6.00 Build 0)  -->
<svg version="1.1" id="Слой_1" xmlns="http://www.w3.org/2000/svg" xmlns:xlink="http://www.w3.org/1999/xlink" x="0px" y="0px"
	 viewBox="0 0 816 544" style="enable-background:new 0 0 816 544;" xml:space="preserve">
<style type="text/css">
	.st0{fill:#1B1B19;}
	.st1{fill:#FFFFFF;}
	.st2{fill:#FFFFFF;stroke:#1D1D1B;stroke-miterlimit:10;}
	.st3{fill:#BF0401;}
</style>
<rect x="-0.04" class="st0" width="816.74" height="544.49"/>
<g>
	<path class="st1" d="M382.03,277.41c1.41,2.89,2.8,5.75,4.23,8.67c-0.26,0-0.46,0-0.66,0c-1.31,0-2.61-0.01-3.92,0.01
		c-0.29,0-0.42-0.1-0.53-0.35c-1.15-2.39-2.32-4.78-3.47-7.17c-0.13-0.27-0.28-0.35-0.57-0.34c-1.57,0.01-3.14,0.01-4.75,0.01
		c0,2.61,0,5.2,0,7.82c-1.47,0-2.9,0-4.36,0c0-7.67,0-15.34,0-23.07c0.5,0,0.99,0,1.47,0c3.01,0,6.02-0.01,9.02,0.01
		c2.27,0.02,4.24,0.8,5.74,2.52c1.83,2.1,2.51,4.54,1.7,7.25C385.3,274.83,384,276.39,382.03,277.41z M372.35,274.14
		c2.16,0,4.28,0,6.4,0c0.09,0,0.19-0.02,0.28-0.05c1.71-0.38,2.96-2.03,2.78-3.68c-0.2-1.95-1.66-3.31-3.55-3.31
		c-1.84,0-3.69,0-5.53,0c-0.13,0-0.25,0-0.39,0C372.35,269.47,372.35,271.79,372.35,274.14z"/>
	<path class="st1" d="M396.87,274.52c0.01-2.54,0.54-4.94,1.89-7.12c1.4-2.26,3.39-3.75,5.96-4.43c2.81-0.75,5.58-0.61,8.25,0.58
		c2.57,1.15,4.3,3.1,5.33,5.7c0.92,2.34,1.11,4.76,0.82,7.24c-0.24,2.03-0.87,3.92-2.05,5.61c-1.38,1.98-3.25,3.3-5.56,3.96
		c-3.04,0.88-6,0.66-8.84-0.77c-2.3-1.16-3.83-3.02-4.8-5.37C397.16,278.2,396.86,276.39,396.87,274.52z M414.64,274.56
		c0.01-1.23-0.13-2.44-0.51-3.61c-0.54-1.64-1.5-2.93-3.09-3.69c-1.12-0.54-2.31-0.68-3.53-0.6c-2.52,0.17-4.35,1.38-5.29,3.73
		c-1.03,2.57-1.01,5.22-0.18,7.84c0.5,1.59,1.48,2.83,3.01,3.58c1.21,0.59,2.49,0.73,3.82,0.6c2.4-0.24,4.1-1.47,5.04-3.7
		C414.47,277.38,414.63,275.99,414.64,274.56z"/>
	<path class="st1" d="M350.29,277.24c-1.82,0-3.57,0-5.33,0c0-1.16,0-2.29,0-3.45c3.4,0,6.78,0,10.23,0
		c-0.04,0.77-0.05,1.52-0.12,2.26c-0.18,1.95-0.7,3.81-1.73,5.5c-1.52,2.49-3.72,4.06-6.56,4.69c-3.13,0.69-6.14,0.37-8.9-1.33
		c-2.36-1.46-3.82-3.63-4.55-6.27c-0.92-3.33-0.82-6.63,0.6-9.8c1.64-3.68,4.54-5.71,8.52-6.2c2.98-0.37,5.74,0.23,8.21,1.99
		c1.19,0.85,2.15,1.9,2.83,3.26c-1.33,0.6-2.65,1.21-3.94,1.79c-0.39-0.48-0.72-0.97-1.13-1.37c-1.19-1.16-2.67-1.64-4.31-1.66
		c-1.74-0.02-3.32,0.42-4.61,1.65c-0.95,0.9-1.48,2.05-1.78,3.3c-0.42,1.76-0.45,3.53-0.13,5.31c0.22,1.2,0.61,2.34,1.38,3.31
		c0.98,1.25,2.29,1.93,3.85,2.15c1.82,0.25,3.54,0,5.06-1.11C349.23,280.28,349.89,278.88,350.29,277.24z"/>
	<path class="st1" d="M367.78,249.51c0,2.55,0,5.08,0,7.65c-1.47,0-2.9,0-4.35,0c0-7.68,0-15.34,0-23.04c1.44,0,2.86,0,4.34,0
		c0,3.66,0,7.32,0,10.99c3.47,0,6.88,0,10.32,0c0-3.67,0-7.31,0-10.99c1.47,0,2.9,0,4.36,0c0,7.68,0,15.34,0,23.03
		c-1.45,0-2.88,0-4.34,0c0-2.55,0-5.08,0-7.65C374.66,249.51,371.24,249.51,367.78,249.51z"/>
	<path class="st1" d="M483.26,257.18c-0.82,0-1.59,0-2.37,0c-0.6,0-1.2-0.02-1.8,0.01c-0.26,0.01-0.35-0.09-0.42-0.32
		c-0.3-1.01-0.62-2.01-0.95-3.01c-0.04-0.11-0.19-0.25-0.3-0.26c-3.06-0.01-6.11-0.01-9.19-0.01c-0.37,1.2-0.73,2.39-1.09,3.58
		c-1.49,0-2.97,0-4.48,0c0.16-0.54,0.3-1.06,0.46-1.57c0.99-3.25,1.99-6.5,2.98-9.74c1.03-3.35,2.05-6.7,3.08-10.05
		c0.15-0.48,0.3-0.96,0.44-1.44c0.05-0.2,0.15-0.26,0.35-0.26c1.99,0.01,3.98,0.01,5.97,0c0.27,0,0.31,0.14,0.37,0.33
		c1.01,3.32,2.03,6.63,3.04,9.95c1.18,3.85,2.36,7.71,3.53,11.56C483.01,256.34,483.13,256.74,483.26,257.18z M476.4,249.47
		c-1.16-3.73-2.31-7.43-3.45-11.12c-0.03,0-0.05,0-0.08,0.01c-1.12,3.7-2.25,7.39-3.38,11.12
		C471.81,249.47,474.07,249.47,476.4,249.47z"/>
	<path class="st1" d="M410.77,257.18c-1.47,0-2.88,0-4.29-0.01c-0.09,0-0.22-0.15-0.26-0.26c-0.33-1-0.64-2-0.94-3.01
		c-0.07-0.23-0.18-0.31-0.43-0.31c-2.92,0.01-5.85,0.01-8.77,0c-0.25,0-0.36,0.07-0.43,0.31c-0.29,1.01-0.6,2.02-0.92,3.02
		c-0.03,0.11-0.17,0.25-0.26,0.25c-1.41,0.02-2.83,0.01-4.29,0.01c0.1-0.35,0.18-0.66,0.28-0.98c1.58-5.18,3.17-10.36,4.75-15.54
		c0.64-2.08,1.28-4.16,1.91-6.24c0.07-0.23,0.17-0.32,0.42-0.32c1.95,0.01,3.91,0.01,5.86,0c0.28,0,0.36,0.11,0.44,0.35
		c1.11,3.65,2.23,7.3,3.34,10.95c1.17,3.82,2.34,7.64,3.5,11.46C410.71,256.94,410.73,257.03,410.77,257.18z M403.92,249.47
		c-1.16-3.75-2.31-7.45-3.49-11.26c-1.16,3.81-2.28,7.52-3.42,11.26C399.34,249.47,401.6,249.47,403.92,249.47z"/>
	<path class="st1" d="M464.96,262.99c1.24,0,2.42,0,3.61,0c2.31,0,4.63-0.01,6.94,0.02c2.24,0.03,4.2,0.79,5.67,2.5
		c1.92,2.22,2.63,4.78,1.59,7.61c-1.09,2.94-3.25,4.66-6.37,5.04c-1.17,0.14-2.37,0.07-3.55,0.08c-1.16,0.01-2.32,0-3.52,0
		c0,2.61,0,5.2,0,7.82c-1.47,0-2.9,0-4.36,0C464.96,278.38,464.96,270.71,464.96,262.99z M469.31,274.13
		c0.1,0.01,0.17,0.02,0.24,0.02c1.44,0,2.87,0.01,4.31,0c0.71,0,1.43,0.06,2.11-0.07c1.77-0.33,3-2.03,2.81-3.75
		c-0.22-1.89-1.69-3.23-3.55-3.23c-1.84,0-3.69,0-5.53,0c-0.13,0-0.25,0.01-0.39,0.02C469.31,269.47,469.31,271.78,469.31,274.13z"
		/>
	<path class="st1" d="M432.09,263.03c1.47,0,2.91,0,4.39,0c0.01,0.11,0.02,0.23,0.02,0.36c0,4.68,0,9.37,0,14.05
		c0,2.45,1.69,4.5,3.96,4.91c2.78,0.5,5.01-1.13,5.71-3.25c0.25-0.76,0.26-1.55,0.26-2.34c0-4.43,0-8.86,0-13.3
		c0-0.14,0-0.28,0-0.45c1.48,0,2.94,0,4.43,0c0,0.18,0,0.33,0,0.48c0,4.43-0.01,8.86,0,13.3c0.01,1.66-0.22,3.27-0.98,4.77
		c-1.38,2.72-3.58,4.35-6.59,4.85c-2.75,0.45-5.32-0.02-7.62-1.65c-1.28-0.91-2.17-2.15-2.8-3.58c-0.59-1.35-0.83-2.76-0.83-4.23
		c0.01-3.38,0-6.76-0.01-10.13c0-1.17,0.01-2.35,0.01-3.52C432.06,263.23,432.07,263.16,432.09,263.03z"/>
	<path class="st1" d="M354.57,241.48c-1.5,0.26-2.98,0.51-4.42,0.76c-0.26-0.56-0.47-1.1-0.76-1.59c-1.04-1.78-2.67-2.66-4.67-2.89
		c-1.56-0.18-3.04,0.12-4.36,0.97c-1.46,0.94-2.27,2.35-2.65,4c-0.5,2.16-0.47,4.32,0.18,6.46c0.75,2.47,2.65,4.06,5.22,4.33
		c1.98,0.21,3.79-0.22,5.3-1.6c0.69-0.63,1.15-1.43,1.49-2.3c0.05-0.12,0.09-0.24,0.15-0.41c1.43,0.41,2.85,0.82,4.32,1.24
		c-0.13,0.33-0.24,0.64-0.38,0.94c-1.75,3.81-4.79,5.79-8.9,6.22c-2.08,0.22-4.08-0.12-5.99-0.97c-2.39-1.06-4.05-2.85-5.15-5.19
		c-1.09-2.32-1.34-4.78-1.13-7.3c0.19-2.24,0.86-4.3,2.18-6.15c1.83-2.57,4.37-3.91,7.46-4.28c2.13-0.25,4.21-0.02,6.2,0.82
		c2.57,1.09,4.33,2.97,5.42,5.52c0.15,0.36,0.28,0.74,0.42,1.11C354.51,241.26,354.53,241.35,354.57,241.48z"/>
	<path class="st1" d="M427.29,257.17c-1.49,0-2.93,0-4.44,0c0-0.32,0-0.62,0-0.93c0-2.73,0.01-5.46,0.01-8.19
		c0-0.15-0.03-0.32-0.1-0.44c-1.22-2.12-2.44-4.23-3.66-6.34c-1.34-2.32-2.67-4.65-4.01-6.97c-0.02-0.04-0.04-0.09-0.07-0.17
		c0.13-0.01,0.25-0.02,0.36-0.02c1.45,0,2.9,0.01,4.35-0.01c0.26,0,0.4,0.08,0.53,0.31c1.53,2.67,3.07,5.33,4.6,8
		c0.06,0.11,0.13,0.22,0.23,0.37c0.41-0.71,0.8-1.38,1.18-2.05c1.23-2.15,2.47-4.3,3.71-6.44c0.05-0.08,0.16-0.17,0.24-0.17
		c1.63-0.01,3.25-0.01,4.95-0.01c-0.26,0.47-0.5,0.9-0.74,1.31c-1.45,2.52-2.9,5.04-4.36,7.56c-0.86,1.49-1.73,2.98-2.58,4.48
		c-0.12,0.21-0.19,0.47-0.19,0.7c-0.01,2.86-0.01,5.73-0.01,8.59C427.29,256.88,427.29,257.01,427.29,257.17z"/>
	<path class="st1" d="M442.72,257.16c0-0.47,0-0.9,0-1.33c0-3.33-0.01-6.66-0.01-9.99c0-3.31,0.01-6.61,0.01-9.92
		c0-0.51,0-1.03,0-1.54c0-0.17,0.03-0.27,0.24-0.27c1.33,0.01,2.66,0.01,3.99,0.01c0.03,0,0.07,0.02,0.13,0.04
		c0,6.21,0,12.42,0,18.66c3.32,0,6.6,0,9.91,0c0,1.46,0,2.89,0,4.34C452.25,257.16,447.51,257.16,442.72,257.16z"/>
	<path class="st1" d="M470.01,303.37c-0.66-0.72-0.97-1.55-0.93-2.5c0.06-1.82,1.27-3.15,3.08-3.43c0.89-0.13,1.77-0.11,2.62,0.2
		c2.15,0.76,3.01,3.41,1.72,5.3c-0.1,0.15-0.21,0.29-0.33,0.45c0.57,0.57,0.98,1.21,1.16,2c0.56,2.43-1.06,4.68-3.55,4.92
		c-0.81,0.08-1.6,0.03-2.38-0.23c-2.67-0.91-3.55-4.26-1.69-6.37C469.8,303.59,469.9,303.49,470.01,303.37z M471.23,306.32
		c0,1.13,0.66,1.79,1.82,1.8c1.16,0.02,1.88-0.66,1.89-1.78c0-1.11-0.69-1.79-1.83-1.8C471.93,304.54,471.23,305.2,471.23,306.32z
		 M473.11,299.53c-0.29,0.07-0.59,0.11-0.86,0.22c-0.47,0.19-0.67,0.59-0.7,1.08c-0.03,0.49,0.09,0.93,0.53,1.22
		c0.54,0.36,1.49,0.38,2-0.02c0.21-0.17,0.41-0.45,0.47-0.72C474.78,300.28,474.2,299.6,473.11,299.53z"/>
	<path class="st1" d="M364.37,300.79c-0.76,0.2-1.49,0.41-2.24,0.58c-0.08,0.02-0.24-0.12-0.29-0.23c-0.43-0.84-1.12-1.33-2.03-1.52
		c-0.6-0.12-1.21-0.08-1.75,0.2c-0.28,0.14-0.56,0.39-0.73,0.66c-0.29,0.46-0.14,0.98,0.34,1.23c0.42,0.22,0.88,0.38,1.33,0.53
		c1.07,0.35,2.17,0.6,3.21,1.04c1.95,0.82,2.89,3.06,1.85,4.98c-0.42,0.78-1.05,1.36-1.88,1.65c-1.79,0.61-3.6,0.67-5.36-0.11
		c-1.35-0.6-2.3-2.05-2.53-3.56c0.77-0.21,1.54-0.41,2.32-0.62c0.04,0.13,0.08,0.23,0.1,0.33c0.38,1.73,1.79,2.32,3.23,2.18
		c0.45-0.05,0.93-0.18,1.33-0.38c0.98-0.49,1-1.66,0.06-2.21c-0.29-0.17-0.63-0.28-0.96-0.39c-1.03-0.32-2.07-0.59-3.09-0.95
		c-1-0.35-1.84-0.92-2.28-1.94c-0.73-1.7,0.06-3.68,1.84-4.41c1.73-0.71,3.5-0.68,5.18,0.17
		C363.17,298.58,363.89,299.57,364.37,300.79z"/>
	<path class="st1" d="M441.47,303.83c-0.04,0.94-0.01,1.9-0.14,2.83c-0.29,2.08-1.96,3.53-4.06,3.64c-1.5,0.08-2.86-0.26-3.93-1.39
		c-0.74-0.78-1.11-1.74-1.12-2.8c-0.02-1.65-0.05-3.31,0.05-4.96c0.11-1.86,1.66-3.42,3.51-3.71c1.12-0.18,2.23-0.12,3.26,0.41
		c1.44,0.74,2.24,1.92,2.34,3.53c0.05,0.81,0.01,1.63,0.01,2.44C441.42,303.83,441.44,303.83,441.47,303.83z M434.62,303.84
		C434.62,303.84,434.62,303.84,434.62,303.84c0,0.75-0.04,1.51,0.01,2.26c0.06,1.15,1.05,2.02,2.22,2c1.19-0.02,2.15-0.93,2.17-2.1
		c0.02-1.44,0.02-2.87,0-4.31c-0.02-1.16-0.96-2.08-2.12-2.11c-1.2-0.03-2.2,0.84-2.27,2.03
		C434.59,302.35,434.62,303.09,434.62,303.84z"/>
	<path class="st1" d="M343.56,297.65c0,0.78,0,1.53,0,2.32c-1.92,0-3.82,0-5.74,0c0,0.91,0,1.78,0,2.7c1.57,0,3.13,0,4.71,0
		c0,0.8,0,1.55,0,2.34c-1.56,0-3.12,0-4.7,0c0,0.92,0,1.79,0,2.71c1.9,0,3.8,0,5.72,0c0,0.8,0,1.56,0,2.35c-2.7,0-5.38,0-8.09,0
		c0-4.12,0-8.25,0-12.41C338.15,297.65,340.84,297.65,343.56,297.65z"/>
	<path class="st1" d="M415.24,301.52c-0.8,0-1.58,0-2.38,0c-0.08-0.49,0.03-0.95,0.19-1.4c0.62-1.72,1.9-2.55,3.68-2.74
		c2.3-0.24,4.2,1.02,4.69,3.18c0.36,1.61-0.06,2.99-1.28,4.1c-1.05,0.95-2.12,1.87-3.19,2.8c-0.12,0.11-0.24,0.21-0.43,0.38
		c1.64,0,3.18,0,4.75,0c0,0.74,0,1.45,0,2.2c-2.83,0-5.63,0-8.51,0c0-0.52,0.03-1.04-0.01-1.56c-0.04-0.47,0.14-0.76,0.5-1.05
		c1.65-1.37,3.28-2.77,4.91-4.15c0.84-0.71,1.13-1.55,0.84-2.41c-0.29-0.86-1.1-1.36-2.06-1.27c-0.82,0.08-1.54,0.77-1.66,1.6
		C415.26,301.29,415.26,301.38,415.24,301.52z"/>
	<path class="st1" d="M380.6,310.07c-0.82,0-1.57,0-2.36,0c0-3.36,0-6.71,0-10.1c-1.33,0-2.61,0-3.93,0c0-0.79,0-1.54,0-2.32
		c3.39,0,6.77,0,10.17,0c0,0.76,0,1.52,0,2.31c-1.29,0-2.56,0-3.88,0C380.6,303.35,380.6,306.7,380.6,310.07z"/>
	<path class="st1" d="M456.65,310.06c-0.8,0-1.57,0-2.38,0c0-3.27,0-6.54,0-9.88c-0.8,0.49-1.54,0.94-2.31,1.42
		c-0.02-0.11-0.04-0.2-0.04-0.29c0-0.67-0.02-1.34,0.01-2.01c0.01-0.14,0.11-0.34,0.23-0.42c0.59-0.38,1.2-0.74,1.82-1.08
		c0.18-0.1,0.4-0.16,0.6-0.16c0.68-0.02,1.36-0.01,2.07-0.01C456.65,301.79,456.65,305.92,456.65,310.06z"/>
	<path class="st2" d="M387.76,258.11"/>
	<circle class="st3" cx="396.71" cy="308.1" r="1.94"/>
</g>
<path class="st3" d="M686.04,511.38c0,0,0.58-1-2.08-1s-3.57,1.75-3.57,2.11s-0.1,1.44,1.63,2.49c1.74,1.05,3.7,2.32,3.72,3.48
	c0.02,1.15,0.19,1.51-1.84,1.65c-2.04,0.13-3.58,0.51-3.51,1.09c0.08,0.58,1.87,0.46,3.19,0.27c1.32-0.19,3.42-0.69,3.42-1.66
	s0.04-3.07-1.83-4.35s-3.42-1.92-3.42-2.67c0-0.75,1.84-1.36,2.41-1.36C684.74,511.42,685.97,511.96,686.04,511.38z"/>
<path class="st3" d="M691.02,513.54c0,0,0.92-0.13,0.64,1.85c-0.29,1.97-0.42,2.79,0.05,2.75c0.47-0.04,1.96-0.16,1.92,0.53
	s-1.24,0.83-1.59,0.83s-0.79-0.23-0.79,0.41s-0.01,1.72,0.99,1.62c1-0.1,1.86-1.06,2.23-0.73c0.37,0.33,0.09,1.64-0.84,1.74
	s-2.75,0.2-3.19-0.5s-0.54-2.26-0.54-2.26s-1.63,0.69-1.74,0.24s0.47-1.16,0.97-1.32s1.09-0.16,1.07-0.8S690.45,513.3,691.02,513.54
	z"/>
<path class="st3" d="M698.29,519.25c0,0,2.38-1.42,2.38-2.28s0.02-1.85-1.67-1.82c-1.69,0.04-2.88,1.11-2.93,2.47
	c-0.05,1.36,0.59,2.65,2.65,3.35s3.26,0.64,3.22,0C701.9,520.32,699.53,520.59,698.29,519.25z M697.48,517.84
	c-0.13-0.75,1.12-1.61,1.57-1.57c0.45,0.04,0.68,0.1,0.44,0.45C699.49,516.72,697.6,518.58,697.48,517.84z"/>
<path class="st3" d="M707.77,517.69c-1.43-1.27-3.36-0.49-3.68-0.17c-0.31,0.31-0.37,9.62-0.37,9.62c-0.01,0.45,0.45,0.35,0.45,0.35
	c0.85,0.1,0.62-3.54,0.62-4.12c0-0.58,1.76-1.3,2.9-2C708.82,520.67,709.2,518.96,707.77,517.69z M705.68,521.06
	c-0.97,0.54-0.52-2.57-0.52-2.57c0.42-1.28,2.35,0.47,2.41,0.99C707.64,519.99,706.66,520.51,705.68,521.06z"/>
<path class="st3" d="M720.24,515.6c-1.01-0.03-1.5-0.07-1.5-0.07l0.06-6.19c0,0-0.32-1.2-1.12-0.47c0,0-0.47,12.63,0.03,13.1
	c0.49,0.48,1.95,0.58,2.99-0.45c1.04-1.02,1.85-1.93,1.78-2.97C722.4,517.51,721.25,515.63,720.24,515.6z M718.77,520.89v-3.78
	c2.1-0.6,2.29,0.86,2.29,1.89C721.06,520.03,718.77,520.89,718.77,520.89z"/>
<path class="st3" d="M723.88,517.44c0,0-0.6,0.39,0.1,1.66c0.71,1.27,1.2,2.32,2.32,2.32s2.44-1.3,2.44-1.3s0.56,2.99-0.8,3.71
	c-1.36,0.72-2.83,0.17-2.87,0.5c-0.04,0.33,0.19,1.37,1.18,1.27s3.62-0.65,3.62-2.68s0.41-5.19-0.64-5.17
	c-1.05,0.01-1.65,2.58-2.63,2.38C725.61,519.93,724.85,516.8,723.88,517.44z"/>
<path class="st3" d="M741.46,517.38c0,0,0.19-0.05,0.27,0.21c0.07,0.26,0.83,0.83,1.02-0.05c0.19-0.88-0.5-1.61-1.68-1.55
	c-1.18,0.06-2.54,0.92-2.52,1.66c0.01,0.73,2.33,1.87,2.62,2.11c0.29,0.24,0.85,0.86,0.07,1.13c-0.77,0.27-2.73,0.14-2.7,0.78
	s1.65,0.7,2.58,0.55c0.94-0.14,1.9-0.49,1.84-1.45c-0.06-0.96-1.84-2.23-2.36-2.58S740.02,517.12,741.46,517.38z"/>
<path class="st3" d="M746.74,513.92l-0.54,4.43c0,0-2.12,0.57-2.11,1.25s1.77,0.17,1.77,0.17s-0.06,2.83,2.03,2.78
	c2.09-0.05,3.07-0.45,3-1.26s-0.69-0.68-1.42-0.1c-0.73,0.58-2.2,0.27-2.21-0.53c-0.01-0.79,0.02-1.21,0.02-1.21s2.48,0.1,2.4-0.61
	c-0.08-0.71-1.07-0.65-1.65-0.73c-0.58-0.08-0.78-0.23-0.72-0.46s0.69-3.51,0.47-3.73C747.58,513.71,747.09,513.54,746.74,513.92z"
	/>
<path class="st3" d="M756.93,520.44c-1.04-0.02-2.58-1.2-2.58-1.2c0.17-0.49,1.43-0.9,1.95-1.5c0.52-0.6,1.2-2.48-1.35-2.55
	c-2.55-0.08-2.79,2.28-2.81,3.28c-0.02,0.99,2.1,2.32,3.13,2.83c1.04,0.52,2.65,0.16,2.7-0.18
	C758,520.78,757.96,520.46,756.93,520.44z M753.52,517.72c0-0.29,0-0.58,0.96-1.25c0,0,1.96-0.59,0.74,0.58
	C754.01,518.21,753.52,518.01,753.52,517.72z"/>
<path class="st3" d="M763.52,517.4c-1.3-0.86-2.95-0.18-3.3,0.05c-0.35,0.23-0.81,9.86-0.81,9.86s0.26,0.13,0.87,0.15
	c0.61,0,0.58-3.45,0.61-4.13c0.02-0.68,2.38-1.48,3.29-2.54C765.08,519.73,764.81,518.26,763.52,517.4z M761.23,521.21v-3.12
	c0.98-0.38,2.32,0.61,2.34,1.47C763.59,520.42,761.23,521.21,761.23,521.21z"/>
</svg>
