<svg width="300" height="160" xmlns="http://www.w3.org/2000/svg" version="1.0" preserveAspectRatio="xMidYMid meet">
 <g>
  <title>Слой 1</title>
  <g transform="translate(0 500) scale(0.1 -0.1)" fill="#000000" id="svg_1">
   <path d="m210,4891c-117,-38 -184,-135 -184,-266c0,-110 51,-202 138,-247c31,-17 59,-22 116,-22c83,0 134,20 181,71c26,27 64,92 57,98c-2,1 -27,9 -56,18l-53,15l-15,-29c-46,-89 -182,-89 -229,0c-9,19 -15,56 -15,99c0,55 5,76 23,103c51,77 165,75 216,-4c24,-37 26,-37 70,-31c60,8 67,16 50,55c-19,47 -66,97 -113,121c-44,22 -145,33 -186,19z" id="svg_2"/>
   <path d="m625,4878c-3,-7 -4,-126 -3,-263l3,-250l55,0l55,0l3,83l3,82l99,0l99,0l3,-82l3,-83l58,-3l57,-3l0,266l0,266l-57,-3l-58,-3l-3,-117l-3,-118l-99,0l-99,0l-3,118l-3,117l-53,3c-36,2 -54,-1 -57,-10z" id="svg_3"/>
   <path d="m1261,4793c-16,-54 -51,-168 -77,-253c-26,-85 -49,-161 -51,-167c-4,-10 11,-13 56,-13l60,0l11,40l11,40l98,0l98,0l12,-40l12,-40l59,0c43,0 58,3 55,13c-9,26 -155,508 -155,513c0,2 -36,4 -80,4l-79,0l-30,-97zm139,-142c12,-40 24,-80 27,-87c4,-11 -8,-14 -56,-14c-34,0 -61,2 -61,6c0,22 55,183 61,177c4,-5 17,-41 29,-82z" id="svg_4"/>
   <path d="m1600,4885c0,-3 41,-76 90,-163l90,-158l0,-102l0,-102l55,0l55,0l0,108l0,107l90,155l90,155l-56,3c-31,2 -62,1 -69,-2c-7,-2 -29,-35 -50,-73c-66,-117 -56,-116 -115,-14l-52,91l-64,0c-35,0 -64,-2 -64,-5z" id="svg_5"/>
   <path d="m2140,4625l0,-265l165,0l166,0l-3,58l-3,57l-107,3l-108,3l0,204l0,205l-55,0l-55,0l0,-265z" id="svg_6"/>
   <path d="m2650,4868c-13,-32 -150,-485 -150,-498c0,-7 21,-10 57,-8c55,3 57,4 68,38l12,35l96,3l96,3l12,-41l12,-40l59,0c32,0 58,3 58,8c0,4 -36,122 -79,262l-79,255l-76,3c-71,3 -77,1 -86,-20zm138,-314c-3,-3 -30,-4 -61,-2l-54,3l23,80c13,44 27,87 30,95c4,9 19,-22 37,-78c16,-51 27,-95 25,-98z" id="svg_7"/>
   <path d="m163,4235c-91,-46 -136,-126 -136,-245c0,-167 96,-270 253,-270c146,0 242,92 252,240l3,55l-120,0l-120,0l-3,-47l-3,-48l55,0c58,0 64,-6 46,-41c-26,-47 -120,-65 -179,-34c-42,21 -61,67 -61,146c0,107 42,159 130,159c47,0 78,-13 101,-43c16,-19 17,-19 63,-2c26,10 49,22 52,27c11,17 -46,76 -98,102c-72,36 -163,36 -235,1z" id="svg_8"/>
   <path d="m1383,4235c-89,-45 -133,-126 -133,-245c0,-119 44,-200 133,-245c90,-45 212,-31 286,31c115,99 115,329 0,428c-74,62 -196,76 -286,31zm187,-100c43,-22 64,-69 64,-145c0,-42 -6,-77 -17,-97c-46,-87 -190,-85 -232,3c-19,41 -20,146 0,184c34,66 116,90 185,55z" id="svg_9"/>
   <path d="m707,4243c-4,-3 -7,-120 -7,-260l0,-253l60,0l60,0l0,85l0,85l48,0l48,0l42,-85l42,-85l65,0l65,0l-47,95l-48,95l27,23c93,78 76,232 -32,287c-34,17 -59,20 -178,20c-76,0 -142,-3 -145,-7zm273,-113c35,-19 33,-88 -4,-112c-6,-4 -44,-8 -83,-8l-73,0l0,65l0,65l71,0c39,0 79,-4 89,-10z" id="svg_10"/>
   <path d="m1930,4063c0,-161 3,-194 19,-228c35,-77 102,-115 199,-115c80,0 137,31 177,95l30,48l3,194l4,193l-61,0l-61,0l0,-180l0,-180l-28,-31c-45,-51 -125,-40 -157,21c-12,23 -15,67 -15,200l0,170l-55,0l-55,0l0,-187z" id="svg_11"/>
   <path d="m2560,3991l0,-261l55,0l55,0l0,85l0,85l85,0c103,0 152,20 191,80c49,74 29,182 -44,238c-34,26 -40,27 -189,30l-153,3l0,-260zm280,129c11,-11 20,-31 20,-45c0,-47 -31,-65 -115,-65l-75,0l0,65l0,65l75,0c62,0 79,-4 95,-20z" id="svg_12"/>
   <path d="m50,3565c0,-49 3,-66 13,-63c6,3 13,14 15,26c5,30 49,31 54,2c7,-45 23,-22 26,38c2,51 0,62 -13,62c-10,0 -15,-10 -15,-30c0,-25 -4,-30 -24,-30c-19,0 -25,6 -28,27c-2,14 -9,28 -15,31c-10,3 -13,-14 -13,-63z" id="svg_13"/>
   <path d="m246,3614c-22,-21 -20,-77 2,-97c54,-49 128,26 88,88c-19,29 -66,34 -90,9zm72,-40c5,-55 -51,-71 -64,-18c-8,30 12,56 40,52c15,-2 22,-11 24,-34z" id="svg_14"/>
   <path d="m421,3616c-16,-19 -4,-42 30,-56c30,-13 36,-24 18,-35c-5,-4 -19,1 -29,10c-23,21 -36,3 -14,-19c18,-19 55,-21 72,-4c23,23 13,48 -23,64c-19,8 -35,19 -35,24c0,12 20,13 40,1c20,-13 34,-2 19,15c-15,18 -63,18 -78,0z" id="svg_15"/>
   <path d="m580,3566c0,-62 15,-92 22,-44c2,16 12,24 32,28c68,12 58,73 -13,78l-41,3l0,-65zm68,22c3,-13 -3,-18 -22,-18c-20,0 -26,5 -26,21c0,15 5,20 22,17c13,-2 24,-11 26,-20z" id="svg_16"/>
   <path d="m742,3568c2,-35 8,-63 13,-63c6,0 11,28 13,63c2,51 0,62 -13,62c-13,0 -15,-11 -13,-62z" id="svg_17"/>
   <path d="m820,3620c0,-5 9,-10 20,-10c18,0 20,-7 20,-55c0,-30 5,-55 10,-55c6,0 10,23 10,51c0,42 3,52 20,56c37,10 20,23 -30,23c-27,0 -50,-4 -50,-10z" id="svg_18"/>
   <path d="m992,3570c-11,-33 -17,-62 -12,-65c5,-3 11,-1 15,5c9,14 62,12 68,-2c2,-7 7,-10 11,-6c4,3 0,34 -10,67c-23,83 -45,83 -72,1zm48,-6c0,-8 -7,-14 -15,-14c-17,0 -18,2 -9,24c7,18 24,12 24,-10z" id="svg_19"/>
   <path d="m1150,3565l0,-65l35,0c24,0 35,5 35,15c0,9 -9,15 -25,15c-23,0 -25,3 -25,50c0,28 -4,50 -10,50c-6,0 -10,-28 -10,-65z" id="svg_20"/>
   <path d="m1290,3565c0,-37 4,-65 10,-65c6,0 10,28 10,65c0,37 -4,65 -10,65c-6,0 -10,-28 -10,-65z" id="svg_21"/>
   <path d="m1370,3621c0,-5 9,-11 20,-14c17,-4 20,-14 20,-56c0,-28 5,-51 10,-51c6,0 10,23 10,51c0,42 3,52 20,56c37,10 20,23 -30,23c-27,0 -50,-4 -50,-9z" id="svg_22"/>
   <path d="m1530,3623c0,-5 9,-21 20,-38c11,-16 20,-42 20,-57c0,-16 5,-28 10,-28c6,0 10,12 10,28c0,15 9,42 20,60c24,39 24,42 6,42c-8,0 -18,-9 -21,-20c-3,-11 -9,-20 -13,-20c-4,0 -13,9 -20,20c-12,20 -32,27 -32,13z" id="svg_23"/>
   <path d="m1840,3565l0,-65l40,0c29,0 40,4 40,15c0,10 -10,15 -30,15c-36,0 -40,15 -5,24c14,4 25,11 25,16c0,6 -11,10 -25,10c-16,0 -25,6 -25,15c0,10 10,15 30,15c17,0 30,5 30,10c0,6 -18,10 -40,10l-40,0l0,-65z" id="svg_24"/>
   <path d="m1994,3615c-10,-24 4,-45 36,-57c17,-5 29,-15 27,-21c-6,-18 -24,-19 -41,-1c-20,20 -35,10 -20,-14c26,-41 106,-13 83,29c-5,11 -21,24 -35,29c-13,5 -24,14 -24,20c0,13 27,13 35,0c4,-6 11,-8 16,-4c6,4 6,11 -2,20c-15,19 -68,18 -75,-1z" id="svg_25"/>
   <path d="m2140,3620c0,-5 9,-10 20,-10c18,0 20,-7 20,-55c0,-70 18,-72 22,-2c3,45 6,52 26,55c44,7 21,22 -33,22c-30,0 -55,-4 -55,-10z" id="svg_26"/>
   <path d="m2434,3615c-9,-22 3,-30 21,-15c12,10 19,10 27,2c9,-9 4,-20 -20,-45c-43,-44 -42,-59 5,-55c41,3 59,28 21,28l-23,0l23,18c17,14 23,26 20,48c-3,25 -8,29 -36,32c-22,2 -34,-2 -38,-13z" id="svg_27"/>
   <path d="m2592,3618c-7,-7 -12,-31 -12,-55c0,-51 26,-72 66,-54c20,9 24,18 24,54c0,47 -13,67 -45,67c-12,0 -26,-5 -33,-12zm56,-41c4,-36 -15,-62 -34,-46c-15,12 -19,61 -7,73c15,15 38,0 41,-27z" id="svg_28"/>
   <path d="m2743,3623c-18,-7 -16,-23 2,-23c11,0 15,-12 15,-50c0,-27 5,-50 10,-50c6,0 10,28 10,65c0,65 -4,72 -37,58z" id="svg_29"/>
   <path d="m2873,3618c-15,-20 -14,-95 2,-108c19,-16 62,-5 69,18c2,9 2,35 -2,57c-6,33 -12,41 -33,43c-14,2 -30,-3 -36,-10zm38,-21c-1,-12 -15,-9 -19,4c-3,6 1,10 8,8c6,-3 11,-8 11,-12zm9,-50c0,-8 -3,-17 -7,-20c-9,-9 -34,13 -27,24c8,14 34,11 34,-4z" id="svg_30"/>
  </g>
 </g>

</svg>