<svg width="35" height="49" viewBox="0 0 35 49" fill="none" xmlns="http://www.w3.org/2000/svg">
<path d="M20.6626 1.03452H2.6626C1.8376 1.03452 1.1626 1.70952 1.1626 2.53452V46.0345C1.1626 46.8595 1.8376 47.5345 2.6626 47.5345H32.6626C33.4876 47.5345 34.1626 46.8595 34.1626 46.0345V14.5345L20.6626 1.03452Z" fill="#00B2AE"/>
<path d="M32.6626 48.2845H2.6626C1.3876 48.2845 0.412598 47.3095 0.412598 46.0345V2.53452C0.412598 1.25952 1.3876 0.284515 2.6626 0.284515H20.9626L34.9126 14.2345V46.0345C34.9126 47.3095 33.9376 48.2845 32.6626 48.2845ZM2.6626 1.78452C2.2126 1.78452 1.9126 2.08452 1.9126 2.53452V46.0345C1.9126 46.4845 2.2126 46.7845 2.6626 46.7845H32.6626C33.1126 46.7845 33.4126 46.4845 33.4126 46.0345V14.8345L20.3626 1.78452H2.6626Z" fill="#231C1C"/>
<path d="M20.6626 13.0345C20.6626 13.8595 21.3376 14.5345 22.1626 14.5345H34.1626L20.6626 1.03452V13.0345Z" fill="#008181"/>
<path d="M34.1626 15.2845H22.1626C20.8876 15.2845 19.9126 14.3095 19.9126 13.0345V1.0345C19.9126 0.734503 20.0626 0.434502 20.3626 0.359502C20.6626 0.209502 20.9626 0.284503 21.1876 0.509503L34.6876 14.0095C34.9126 14.2345 34.9876 14.5345 34.8376 14.8345C34.7626 15.1345 34.4626 15.2845 34.1626 15.2845ZM21.4126 2.8345V13.0345C21.4126 13.4845 21.7126 13.7845 22.1626 13.7845H32.3626L21.4126 2.8345ZM6.4126 20.5345H28.1626V22.0345H6.4126V20.5345ZM6.4126 25.7845H28.1626V27.2845H6.4126V25.7845Z" fill="#231C1C"/>
<path d="M6.4126 31.0345H28.1626V32.5345H6.4126V31.0345Z" fill="#231C1C"/>
<path d="M6.4126 37.0345H28.1626V38.5345H6.4126V37.0345Z" fill="#231C1C"/>
</svg>
