<?xml version="1.0" encoding="UTF-8"?>
<!DOCTYPE svg PUBLIC "-//W3C//DTD SVG 1.1//EN" "http://www.w3.org/Graphics/SVG/1.1/DTD/svg11.dtd">
<!-- Creator: CorelDRAW 2021.5 -->
<svg xmlns="http://www.w3.org/2000/svg" xml:space="preserve" width="40.8488mm" height="18.346mm" version="1.1" style="shape-rendering:geometricPrecision; text-rendering:geometricPrecision; image-rendering:optimizeQuality; fill-rule:evenodd; clip-rule:evenodd"
viewBox="0 0 124.01 55.69"
 xmlns:xlink="http://www.w3.org/1999/xlink"
 xmlns:xodm="http://www.corel.com/coreldraw/odm/2003">
 <defs>
  <style type="text/css">
   <![CDATA[
    .fil1 {fill:black}
    .fil0 {fill:red}
   ]]>
  </style>
 </defs>
 <g id="Слой_x0020_1">
  <metadata id="CorelCorpID_0Corel-Layer"/>
  <g id="_2457385642656">
   <path class="fil0" d="M72.47 0c2.06,0 3.74,1.67 3.74,3.74 0,2.06 -1.67,3.74 -3.74,3.74 -2.06,0 -3.74,-1.67 -3.74,-3.74 0,-2.06 1.67,-3.74 3.74,-3.74z"/>
   <path class="fil1" d="M15.74 46.08l-0 -4.76c-0,-2.09 -1.03,-3.48 -2.13,-4.12 -0.5,-0.34 -1.63,-0.66 -2.61,-0.66l-3.5 -0c-1.95,-0.03 -2.89,-1.09 -2.89,-2.45 0,-0.8 0.39,-1.56 1.06,-2.02 0.46,-0.32 0.7,-0.66 0.21,-0.89l0 0c-2.84,-1.07 -5.82,-3.46 -5.82,-9.34 0,-6.48 4.25,-9.61 9.41,-9.61l0 0.56c-2.53,0.19 -3.97,2.35 -3.97,4.09l0 4.96 0 4.76c0,2.09 1.03,3.48 2.13,4.12 0.64,0.43 1.81,0.65 2.99,0.67 1.18,-0.02 2.35,-0.24 2.99,-0.67 1.1,-0.64 2.13,-2.03 2.13,-4.12l0 -4.76 0 -4.96c0,-1.74 -1.45,-3.9 -3.97,-4.09l0 -0.56c5.16,0 9.41,3.14 9.41,9.61 0,8.65 -6.43,9.75 -9.41,10.19 -1.06,0.16 -1.88,0.83 -1.88,1.96 0,0.49 0.18,0.94 0.48,1.28 0.46,0.48 1.33,0.6 1.4,0.61 2.97,0.45 9.41,1.55 9.41,10.19 0,6.48 -4.25,9.61 -9.41,9.61l0 -0.56c2.53,-0.19 3.97,-2.35 3.97,-4.09l0 -4.96zm10.71 -31.19c0,1.47 -1.19,2.66 -2.66,2.66 -0.99,0 -1.86,-0.55 -2.31,-1.35 -0.71,-1.2 0.23,-3.38 -2.01,-3.38l0 -0.57 4.12 -0c1.71,0 2.86,1.25 2.86,2.66zm43.51 31.89c0,5.07 -1.73,7.51 -3.86,8.1l0 0.69c7.46,0 9.1,-6.21 9.1,-14.31l0 -29.02 -7.51 -0 0 0.59c0.48,0 2.27,0.9 2.27,2.5l-0 31.45zm46.54 -24.66c0,-5.86 -1.57,-9.31 -3.86,-9.31l0 -0.58c7.88,0 9.1,6.04 9.1,13.96l0 7.08c0,1.36 1.05,2.45 2.26,2.45l0 0.56 -9.78 -0 0 -0.56c0.59,0 2.27,-0.82 2.27,-2.45l0 -11.15zm-17.71 -9.88l9.78 -0 -0 0.57c-1.21,0 -2.26,1.1 -2.26,2.47l0 17.97c0,1.37 1.05,2.47 2.26,2.47l0 0.57 -9.78 -0 0 -0.56c0.59,0 2.27,-0.83 2.27,-2.48l0 -17.96c0,-1.65 -1.68,-2.48 -2.27,-2.48l-0 -0.56zm-15.64 24.04l9.78 0 -0 -0.57c-1.21,0 -2.26,-1.1 -2.26,-2.47l0 -21.01 -7.51 -0 0 0.59c0.48,0 2.27,0.89 2.27,2.47l-0 17.94c0,1.64 -1.68,2.48 -2.27,2.48l-0 0.56zm4.89 -36.28c2.06,0 3.74,1.67 3.74,3.74 0,2.06 -1.67,3.74 -3.74,3.74 -2.06,0 -3.74,-1.67 -3.74,-3.74 0,-2.06 1.67,-3.74 3.74,-3.74zm-35.39 36.28l9.78 0 -0 -0.57c-1.21,0 -2.26,-1.1 -2.26,-2.47l0 -21.01 -7.51 -0 0 0.59c0.48,0 2.27,0.89 2.27,2.47l-0 17.94c0,1.64 -1.68,2.48 -2.27,2.48l-0 0.56zm4.83 -36.28c2.06,0 3.74,1.67 3.74,3.74 0,2.06 -1.67,3.74 -3.74,3.74 -2.06,0 -3.74,-1.67 -3.74,-3.74 0,-2.06 1.67,-3.74 3.74,-3.74zm-24.99 25.18c0,-1.51 0.58,-2.47 1.96,-2.47l0 -0.56c-4.74,-0 -7.11,3.18 -7.11,7.07 0,3.89 2.38,7.07 7.11,7.07l0 -0.56c-1.38,0 -1.95,-0.97 -1.96,-2.47l0 -8.07zm6.96 -3.06c0,-5.86 -1.57,-9.31 -3.86,-9.31l0 -0.58c7.88,0 9.1,6.04 9.1,13.96l0 7.08c0,1.36 1.05,2.45 2.26,2.45l0 0.56 -9.78 -0 0 -0.56c0.59,0 2.27,-0.82 2.27,-2.45l-0 -11.15zm-36.74 21.2c1.48,0 2.69,1.19 2.71,2.66l0.01 0.61 -0.01 4.45c-0,1.74 1.45,3.9 3.98,4.09l0 0.56c-5.91,0 -9.41,-3.86 -9.41,-9.66 0,-1.5 1.21,-2.72 2.71,-2.72z"/>
  </g>
 </g>
</svg>
