<?xml version="1.0" standalone="no"?>
<!DOCTYPE svg PUBLIC "-//W3C//DTD SVG 20010904//EN"
 "http://www.w3.org/TR/2001/REC-SVG-20010904/DTD/svg10.dtd">
<svg version="1.0" xmlns="http://www.w3.org/2000/svg"
 width="504.000000pt" height="412.000000pt" viewBox="0 0 504.000000 412.000000"
 preserveAspectRatio="xMidYMid meet">

<g transform="translate(0.000000,412.000000) scale(0.100000,-0.100000)"
fill="#000000" stroke="none">
<path d="M3218 4110 c-10 -6 -18 -22 -18 -35 0 -14 -4 -25 -9 -25 -5 0 -12 -9
-16 -19 -4 -13 31 -91 110 -244 63 -123 115 -227 115 -230 0 -4 -23 -7 -51 -7
-28 0 -59 -5 -71 -11 -11 -6 -45 -63 -78 -132 -72 -151 -75 -161 -55 -181 15
-15 66 -16 498 -14 l482 3 3 25 c7 48 22 54 56 22 70 -66 70 -67 416 -72 173
-3 323 -3 333 -1 9 2 20 15 23 30 4 14 11 31 16 37 4 6 11 192 15 412 7 425 6
432 -39 432 -23 0 -177 -115 -184 -138 -3 -10 -9 -25 -14 -34 -5 -9 -12 -107
-16 -217 l-7 -201 -161 0 c-130 0 -166 3 -184 16 -22 15 -22 19 -22 229 l0
215 -87 69 -88 70 -390 0 c-214 1 -428 3 -475 6 -53 4 -92 2 -102 -5z m883
-72 c-12 -18 -38 -61 -58 -95 l-37 -63 -243 0 -243 0 95 -190 95 -190 144 0
145 0 37 -62 c20 -35 46 -78 56 -95 l20 -33 -456 0 -456 0 47 95 48 95 117 0
c65 0 118 3 118 6 0 3 -20 43 -44 87 -24 45 -89 171 -145 280 l-102 197 441 0
442 0 -21 -32z m162 -38 l57 -45 0 -212 c0 -210 0 -212 24 -240 l24 -28 214 0
213 0 3 240 3 240 69 53 c37 28 71 52 74 52 8 0 8 -441 -1 -627 l-6 -151 -301
5 c-295 5 -302 5 -354 30 -40 19 -59 36 -80 71 l-27 47 -3 318 c-3 309 -2 318
16 305 10 -7 44 -33 75 -58z m-156 -326 c-1 -182 -5 -260 -12 -249 -5 9 -24
38 -40 63 l-30 47 -142 3 -142 3 -58 111 c-32 62 -59 116 -61 120 -2 4 82 8
186 8 214 0 193 -8 256 98 21 34 39 62 41 62 2 0 3 -120 2 -266z"/>
<path d="M2562 3967 c-88 -89 -132 -139 -132 -154 0 -12 -4 -25 -10 -28 -29
-18 -6 -48 88 -117 53 -39 101 -75 106 -79 4 -4 -74 -48 -175 -98 -645 -317
-1360 -502 -2184 -566 -110 -9 -203 -19 -207 -23 -4 -4 -9 -17 -11 -29 -1 -11
-9 -28 -16 -37 -9 -11 -11 -23 -5 -35 9 -20 463 -462 499 -486 18 -13 56 -4
329 75 170 50 313 90 318 90 10 0 11 -1186 1 -1593 l-6 -287 -102 0 c-70 0
-106 -4 -112 -13 -26 -34 -34 -98 -31 -257 l3 -165 120 -5 120 -5 3 -37 c2
-20 9 -41 15 -47 14 -11 428 -18 446 -7 6 4 11 17 11 29 0 12 7 30 15 41 14
18 37 19 704 14 385 -2 697 -1 705 4 9 5 16 17 16 26 0 9 7 26 15 36 20 26 22
348 2 364 -8 7 -256 13 -720 18 l-707 7 1 601 c1 331 5 785 8 1009 l6 408 100
38 c352 134 1295 615 1311 669 3 10 12 29 20 44 11 20 14 76 14 250 0 202 -2
226 -17 240 -45 37 -372 238 -389 238 -11 0 -74 -55 -152 -133z m461 -96 l57
-36 0 -217 0 -217 -68 -40 c-383 -223 -1045 -546 -1296 -631 l-81 -28 -6 -523
c-4 -288 -9 -770 -12 -1070 l-5 -546 211 -6 c115 -4 439 -7 719 -7 501 0 508
0 508 -20 0 -20 -7 -20 -292 -20 -161 0 -627 -3 -1035 -7 l-743 -6 0 31 0 32
125 0 125 0 0 478 c0 263 3 723 7 1022 l6 542 -24 -7 c-13 -5 -166 -50 -340
-100 l-317 -92 -240 231 c-132 127 -239 232 -237 234 1 2 85 10 186 18 716 57
1377 213 1944 458 108 47 489 237 520 260 13 9 -6 27 -116 106 -72 52 -136 98
-143 102 -7 5 35 53 113 132 l124 124 126 -80 c69 -45 152 -97 184 -117z"/>
<path d="M4136 3144 c-9 -8 -16 -24 -16 -34 0 -29 -16 -32 -28 -6 -10 23 -11
23 -268 29 -141 4 -344 7 -450 7 -165 0 -195 -2 -209 -16 -9 -9 -14 -22 -11
-30 3 -7 -2 -18 -10 -24 -8 -7 -14 -19 -14 -26 0 -26 109 -231 125 -238 9 -3
142 -6 296 -6 l279 0 0 -40 0 -40 -278 0 c-256 0 -280 -1 -295 -18 -27 -29
-128 -262 -125 -285 3 -19 11 -23 73 -28 39 -4 195 -7 348 -8 l277 -1 0 -40 0
-40 -285 0 -285 0 -50 -101 c-104 -206 -106 -229 -20 -229 45 0 50 -2 50 -23
0 -13 -5 -28 -10 -33 -7 -7 -10 -59 -8 -135 l3 -124 177 -105 c97 -58 176
-109 175 -113 -1 -4 -76 -52 -167 -106 -131 -78 -166 -103 -168 -122 -2 -13
-10 -32 -18 -43 -17 -24 -20 -261 -4 -271 7 -4 7 -12 0 -25 -6 -11 -10 -139
-10 -321 -1 -348 3 -373 75 -445 70 -69 98 -74 452 -74 280 0 304 1 309 17 3
10 10 29 16 43 l10 25 14 -28 c8 -15 22 -27 31 -27 9 0 91 54 184 120 92 66
171 120 175 120 3 0 95 -64 203 -143 108 -79 202 -147 208 -151 20 -11 53 12
53 37 0 13 5 28 10 33 7 7 10 59 8 134 l-3 123 -122 85 -123 85 111 74 c60 41
112 82 115 91 3 9 12 29 20 44 21 39 20 251 -2 272 -8 9 -19 16 -24 16 -6 0
-371 -255 -416 -291 -7 -6 -73 37 -182 117 -95 69 -179 124 -188 122 -18 -3
-25 -13 -46 -66 l-13 -33 -5 43 c-8 68 -37 64 -146 -19 -50 -38 -90 -77 -92
-88 -2 -11 -7 -29 -13 -40 -5 -11 -10 -101 -12 -200 l-2 -180 -163 0 c-134 0
-164 3 -172 15 -5 8 -10 108 -10 222 l0 206 -69 53 c-39 29 -68 56 -66 60 3 4
109 71 237 150 231 143 261 164 270 190 3 10 28 -1 86 -39 89 -59 124 -65 130
-22 2 13 10 33 18 44 8 11 14 34 15 51 l1 30 7 -31 c22 -89 106 -178 182 -190
39 -7 39 -7 39 -53 0 -89 31 -92 129 -13 l72 59 218 -5 c236 -5 261 -1 261 43
0 14 4 25 9 25 27 0 18 40 -30 124 -83 145 -66 136 -251 136 l-158 0 0 136 0
136 195 -8 c173 -6 197 -5 220 10 18 12 24 23 20 35 -3 12 0 21 10 25 26 9 17
36 -46 143 -40 68 -69 105 -83 108 -11 3 -187 4 -391 3 l-370 -3 -3 -25 c-2
-13 -10 -33 -18 -44 -11 -16 -14 -69 -15 -241 0 -121 -3 -214 -6 -208 -2 7
-54 42 -114 78 l-109 66 0 98 c0 140 -12 148 -114 71 -56 -43 -69 -49 -86 -40
-21 11 -323 200 -329 206 -2 1 156 0 351 -3 326 -6 355 -5 371 11 9 10 17 26
17 36 0 10 5 22 10 25 6 3 10 15 10 26 0 19 0 19 20 -1 25 -25 -1 -38 340 173
227 141 265 168 268 191 2 14 8 26 13 26 5 0 47 -25 94 -56 85 -57 110 -62
121 -27 3 10 12 30 20 45 10 18 14 60 14 132 l0 106 -42 30 c-22 16 -74 49
-114 73 l-74 42 0 95 c0 137 -17 148 -114 75 -33 -25 -64 -45 -70 -45 -5 0
-96 54 -202 120 -105 66 -197 120 -202 120 -6 0 -18 -7 -26 -16z m238 -155
l196 -121 70 51 70 51 0 -97 0 -98 115 -70 115 -70 0 -98 0 -97 -112 75 -113
75 -3 -49 c-2 -31 -9 -54 -20 -63 -13 -11 -458 -287 -519 -322 -10 -6 -13 17
-13 98 l0 104 200 119 200 118 0 47 0 46 -200 118 -200 119 0 92 c0 53 4 93
10 93 5 0 97 -54 204 -121z m-324 6 c0 -52 -2 -95 -5 -95 -5 0 -398 181 -404
186 -2 2 89 4 202 4 l207 0 0 -95z m253 -274 c104 -62 186 -116 182 -119 -3
-4 -86 -54 -183 -112 -144 -86 -178 -110 -180 -130 -2 -13 -10 -33 -18 -44
-12 -18 -14 13 -14 234 0 241 5 314 19 292 3 -5 91 -60 194 -121z m-463 -467
c-56 -7 -560 -8 -560 -1 0 4 132 6 293 6 160 -1 281 -3 267 -5z m1081 -356
c23 -40 49 -84 57 -96 l15 -24 -231 8 -232 7 0 -207 0 -206 173 0 172 0 50
-87 c28 -47 51 -90 53 -95 2 -4 -97 -5 -220 -2 l-223 7 -70 -57 -70 -56 -5 52
-5 53 -46 6 c-60 9 -102 32 -132 71 -51 69 -55 105 -49 511 l2 187 359 0 359
0 43 -72z m-1270 -183 l35 -23 40 30 c92 70 94 71 94 53 0 -9 -4 -14 -8 -11
-5 3 -34 -15 -65 -40 l-57 -45 -43 25 c-36 20 -64 26 -184 35 -79 6 -151 16
-163 23 -18 11 -20 23 -20 100 l0 88 168 -107 c92 -58 183 -116 203 -128z
m1274 -913 l-7 -63 -154 -102 c-84 -56 -154 -105 -154 -109 0 -4 70 -56 155
-115 85 -59 155 -111 155 -115 0 -5 -55 -8 -121 -8 l-122 0 -88 65 -89 65 -90
-65 -90 -65 -85 0 -85 0 0 43 0 42 120 79 c67 44 119 83 118 87 -2 4 -55 43
-118 87 l-115 79 -3 96 c-1 54 0 97 3 97 3 0 82 -57 176 -126 l170 -127 47 34
c26 18 79 56 117 85 39 28 113 82 165 119 l95 67 3 -44 c2 -23 1 -71 -3 -106z
m-1599 57 c3 -6 -5 -3 -20 6 -14 10 -26 19 -26 22 0 7 39 -17 46 -28z m713 -1
c0 -31 -1 -31 -10 -10 -5 14 -14 21 -21 17 -7 -4 -4 1 6 9 26 21 26 21 25 -16z
m-678 -25 c13 -16 12 -17 -3 -4 -10 7 -18 15 -18 17 0 8 8 3 21 -13z m814
-268 c39 -26 74 -51 79 -56 4 -4 -26 -30 -68 -58 -44 -30 -76 -59 -76 -69 -1
-9 -7 -28 -15 -42 -13 -22 -14 -8 -15 139 0 133 2 162 13 150 6 -9 44 -37 82
-64z"/>
<path d="M4307 1783 c-4 -3 -7 -85 -7 -180 0 -171 0 -174 25 -198 13 -14 33
-25 45 -25 19 0 20 5 20 205 l0 205 -38 0 c-21 0 -42 -3 -45 -7z"/>
<path d="M2057 2538 c-9 -5 -17 -19 -17 -31 0 -13 -6 -29 -12 -35 -10 -10 -14
-213 -19 -915 -3 -496 -1 -910 3 -919 5 -10 18 -18 29 -18 11 0 121 59 245
132 197 115 226 135 231 160 3 16 10 31 14 34 5 3 9 85 9 183 0 98 3 212 6
254 l7 77 261 2 261 3 3 25 c2 14 9 31 15 39 19 22 23 394 5 408 -9 8 -108 14
-281 19 l-267 7 0 147 c0 127 -2 149 -17 162 -20 17 -418 259 -443 269 -9 4
-24 3 -33 -3z m263 -180 l185 -113 3 -161 2 -161 77 -7 c42 -3 168 -6 281 -6
l205 0 -7 -46 c-3 -26 -6 -105 -6 -175 l0 -129 -280 0 -280 0 0 -294 0 -293
-209 -122 c-114 -66 -211 -121 -215 -121 -8 0 -8 408 1 1168 l6 601 26 -14
c14 -8 109 -65 211 -127z"/>
</g>
</svg>
